# AST/ASF file generated using VICON BodyLanguage
# -----------------------------------------------
:version 1.10
:name VICON
:units
  mass 1.0
  length 0.45
  angle deg
:documentation
   .ast/.asf automatically generated from VICON data using
   VICON BodyBuilder and BodyLanguage model FoxedUp or BRILLIANT.MOD
:root
   order TX TY TZ RX RY RZ
   axis XYZ
   position 0 0 0  
   orientation 0 0 0 
:bonedata
  begin
     id 1 
     name lhipjoint
     direction 0.560651 -0.75055 0.34978 
     length 2.44936 
     axis 0 0 0  XYZ
  end
  begin
     id 2 
     name lfemur
     direction 0.34202 -0.939693 0  
     length 7.42139  
     axis 0 0 20  XYZ
    dof rx ry rz
    limits (-160.0 20.0)
           (-70.0 70.0)
           (-60.0 70.0)
  end
  begin
     id 3 
     name ltibia
     direction 0.34202 -0.939693 0   
     length 7.75674   
     axis 0 0 20   XYZ
    dof rx
    limits (-10.0 170.0)
  end
  begin
     id 4 
     name lfoot
     direction 0.0925879 -0.254383 0.962661   
     length 2.38688   
     axis -90 7.62852e-016 20   XYZ
    dof rx rz
    limits (-45.0 90.0)
           (-70.0 20.0)
  end
  begin
     id 5 
     name ltoes
     direction 1.53567e-011 -4.21973e-011 1   
     length 1.19228   
     axis -90 7.62852e-016 20   XYZ
    dof rx
    limits (-90.0 20.0)
  end
  begin
     id 6 
     name rhipjoint
     direction -0.540087 -0.762838 0.355506   
     length 2.4099  
     axis 0 0 0  XYZ 
  end
  begin
     id 7 
     name rfemur
     direction -0.34202 -0.939693 0   
     length 7.70794   
     axis 0 0 -20   XYZ
    dof rx ry rz
    limits (-160.0 20.0)
           (-70.0 70.0)
           (-70.0 60.0)
  end
  begin
     id 8 
     name rtibia
     direction -0.34202 -0.939693 0   
     length 7.66106   
     axis 0 0 -20   XYZ
    dof rx
    limits (-10.0 170.0)
 end
 begin
     id 9 
     name rfoot
     direction -0.0830975 -0.228308 0.970036   
     length 2.4989  
     axis -90 -7.62852e-016 -20   XYZ
    dof rx rz
    limits (-45.0 90.0)
           (-20.0 70.0)
  end
  begin
     id 10 
     name rtoes
     direction -1.53517e-011 -4.21842e-011 1   
     length 1.2498   
     axis -90 -7.62852e-016 -20   XYZ
    dof rx
    limits (-90.0 20.0)
  end
  begin
     id 11 
     name lowerback
     direction 0.0266356 0.99402 -0.105896   
     length 2.1545   
     axis 0 0 0   XYZ
    dof rx ry rz
    limits (-20.0 45.0)
           (-30.0 30.0)
           (-30.0 30.0)
  end
  begin
     id 12 
     name upperback
     direction 0.0130547 0.999192 0.0380027   
     length 2.1434   
     axis 0 0 0   XYZ
    dof rx ry rz
    limits (-20.0 45.0)
           (-30.0 30.0)
           (-30.0 30.0)
  end
  begin
     id 13 
     name thorax
     direction 0.000590299 0.996288 0.0860764   
     length 2.19049   
     axis 0 0 0   XYZ
    dof rx ry rz
    limits (-20.0 45.0)
           (-30.0 30.0)
           (-30.0 30.0)
  end
  begin
     id 14 
     name lowerneck
     direction -0.0432125 0.978219 0.203028   
     length 1.62441   
     axis 0 0 0   XYZ
    dof rx ry rz
    limits (-20.0 45.0)
           (-30.0 30.0)
           (-30.0 30.0)
  end
  begin
     id 15 
     name upperneck
     direction -0.0192309 0.991699 -0.127138   
     length 1.66666   
     axis 0 0 0   XYZ
    dof rx ry rz
    limits (-20.0 45.0)
           (-30.0 30.0)
           (-30.0 30.0)
  end
  begin
     id 16
     name head
     direction -0.00434499 0.997882 -0.0649107  
     length 1.67142  
     axis 0 0 0   XYZ
    dof rx ry rz
    limits (-20.0 45.0)
           (-30.0 30.0)
           (-30.0 30.0)
  end
  begin
     id 17 
     name lclavicle
     direction 0.970351 0.240904 -0.0196058  
     length 4.04862  
     axis 0 0 0   XYZ
    dof ry rz
    limits (-20.0 10.0)
           (0.0 20.0)
  end
  begin
     id 18 
     name lhumerus
     direction 1 -4.4896e-011 -1.40911e-018   
     length 5.58345   
     axis 180 -30 -90   XYZ
    dof rx ry rz
    limits (-60.0 90.0)
           (-90.0 90.0)
           (-90.0 90.0)
  end
  begin
     id 19
     name lradius
     direction 1 -4.48968e-011 5.88912e-028   
     length 3.71087   
     axis 180 -30 -90   XYZ
    dof rx
    limits (-10.0 170.0)
  end
  begin
     id 20
     name lwrist
     direction 1 -4.48955e-011 -8.83775e-028   
     length 1.85544   
     axis 5.52448e-016 90 90   XYZ
    dof ry
    limits (-180.0 0.0)
 end
  begin
     id 21 
     name lhand
     direction 1 -4.49035e-011 -1.76755e-027   
     length 0.562322   
     axis 1.12785e-015 90 90   XYZ
    dof rx rz
    limits (-90.0 90.0)
           (-45.0 45.0)
  end
  begin
     id 22 
     name lfingers
     direction 1 -4.48824e-011 -3.5351e-027   
     length 0.453359   
     axis 2.2557e-015 90 90   XYZ
    dof rx
    limits (0.0 90.0)
  end
  begin
     id 23
     name lthumb
     direction 0.707107 -6.34888e-011 0.707107   
     length 0.650935   
     axis -90 45 2.85299e-015   XYZ
    dof rx rz
    limits (-45.0 45.0)
           (-45.0 45.0)
  end
  begin
     id 24 
     name rclavicle
     direction -0.96165 0.268562 -0.0557131   
     length 4.05446  
     axis 0 0 0   XYZ 
    dof ry rz
    limits (-10.0 20.0)
           (-20.0 0.0)
  end
  begin
     id 25 
     name rhumerus
     direction -1 -4.48957e-011 -3.36329e-027  
     length 5.20357   
     axis 180 30 90   XYZ
    dof rx ry rz
    limits (-90.0 60.0)
           (-90.0 90.0)
           (-90.0 90.0)
  end
  begin
     id 26 
     name rradius
     direction -1 -4.48974e-011 4.51441e-027   
     length 3.64937   
     axis 180 30 90   XYZ
    dof rx
    limits (-10.0 170.0)
  end
  begin
     id 27 
     name rwrist
     direction -1 -4.4896e-011 -8.83775e-028   
     length 1.82468   
     axis 5.52448e-016 -90 -90   XYZ
    dof ry
    limits (-180.0 0.0)
  end
  begin
     id 28
     name rhand
     direction -1 -4.48996e-011 -1.76755e-027   
     length 0.617996   
     axis 1.12785e-015 -90 -90   XYZ
    dof rx rz
    limits (-90.0 90.0)
           (-45.0 45.0)
  end
  begin
     id 29
     name rfingers
     direction -1 -4.48957e-011 -3.5351e-027   
     length 0.498244   
     axis 2.2557e-015 -90 -90   XYZ
    dof rx
    limits (0.0 90.0)
  end
  begin
     id 30
     name rthumb
     direction -0.707107 -6.34931e-011 0.707107   
     length 0.715382   
     axis -90 -45 -2.85299e-015   XYZ
    dof rx rz
    limits (-45.0 45.0)
           (-45.0 45.0)
  end
:hierarchy
  begin
    root lhipjoint rhipjoint lowerback
    lhipjoint lfemur
    lfemur ltibia
    ltibia lfoot
    lfoot ltoes
    rhipjoint rfemur
    rfemur rtibia
    rtibia rfoot
    rfoot rtoes
    lowerback upperback
    upperback thorax
    thorax lowerneck lclavicle rclavicle
    lowerneck upperneck
    upperneck head
    lclavicle lhumerus
    lhumerus lradius
    lradius lwrist
    lwrist lhand lthumb
    lhand lfingers
    rclavicle rhumerus
    rhumerus rradius
    rradius rwrist
    rwrist rhand rthumb
    rhand rfingers
  end

#!OML:ASF H:\ManfredETheater\Project 1\Capture day 2\Session 1\Male1.ASF
:FULLY-SPECIFIED
:DEGREES
63
root 0.997302 17.8807 21.7083 -6.56537 7.33805 -6.14631
lowerback 10.7827 -0.314901 4.44122
upperback -0.0307157 0.403755 4.09066
thorax -6.09959 0.131834 1.73633
lowerneck -22.2595 -1.78807 -2.37626
upperneck 20.1743 -1.17427 -1.99425
head 10.1179 -0.975296 -0.493245
rclavicle 1.42504e-014 3.18055e-015
rhumerus -42.9371 5.06693 -83.8578
rradius 66.7181
rwrist 3.01889
rhand -35.0744 0.28838
rfingers 7.12502
rthumb -8.21659 -29.5319
lclavicle 1.42504e-014 3.18055e-015
lhumerus -46.6132 -1.72651 89.2484
lradius 54.5544
lwrist 2.05219
lhand -18.933 0.825566
lfingers 7.12502
lthumb 7.36978 30.6772
rfemur -14.7875 -1.16445 29.318
rtibia 37.6201
rfoot -5.3318 -5.20969
rtoes 8.01131
lfemur -19.501 -2.01509 -16.1039
ltibia 37.2149
lfoot -2.21616 -7.96899
ltoes 1.82156
64
root 1.0165 17.8938 21.8434 -6.3652 7.0604 -6.01995
lowerback 10.5202 -0.315989 4.27117
upperback -0.0578965 0.361464 4.07199
thorax -5.98062 0.116725 1.81644
lowerneck -22.2681 -1.66743 -2.24392
upperneck 20.1674 -1.0291 -2.08407
head 10.1154 -0.909147 -0.525006
rclavicle 2.09966e-015 3.65764e-014
rhumerus -42.7041 5.32578 -84.018
rradius 66.5665
rwrist 3.0992
rhand -34.7699 0.175544
rfingers 7.12502
rthumb -7.92269 -29.656
lclavicle 2.09966e-015 3.65764e-014
lhumerus -46.7275 -1.17477 88.7008
lradius 53.4805
lwrist 1.89369
lhand -18.4073 1.26567
lfingers 7.12502
lthumb 7.87726 31.0989
rfemur -14.2508 -1.27378 29.2074
rtibia 37.2571
rfoot -5.87003 -4.95037
rtoes 8.31155
lfemur -18.9226 -1.81639 -16.3075
ltibia 36.9935
lfoot -2.95885 -7.6624
ltoes 1.31814
65
root 1.03007 17.9098 21.9699 -6.16271 6.73578 -6.10457
lowerback 10.3813 -0.314007 4.27197
upperback -0.163522 0.362337 4.10973
thorax -6.01447 0.116634 1.85605
lowerneck -22.2048 -1.56671 -2.15337
upperneck 20.1929 -0.912477 -2.12089
head 10.1124 -0.852931 -0.535022
rclavicle -4.14963e-015 2.38542e-014
rhumerus -42.5684 5.52403 -84.1876
rradius 66.4294
rwrist 3.22483
rhand -34.5069 0.0123279
rfingers 7.12502
rthumb -7.66882 -29.8286
lclavicle -4.14963e-015 2.38542e-014
lhumerus -46.9167 -0.668013 88.131
lradius 52.3979
lwrist 1.60632
lhand -17.86 1.62772
lfingers 7.12502
lthumb 8.40546 31.4405
rfemur -13.7792 -1.15642 29.3677
rtibia 36.8903
rfoot -6.30608 -4.87106
rtoes 8.22741
lfemur -18.5478 -1.64294 -16.2428
ltibia 36.7365
lfoot -3.37889 -7.36935
ltoes 1.27607
66
root 1.04781 17.9271 22.0969 -5.94468 6.60618 -5.76522
lowerback 10.1337 -0.343486 3.90128
upperback -0.222382 0.25692 4.00382
thorax -5.93657 0.0744128 1.96674
lowerneck -22.0066 -1.45652 -1.96886
upperneck 20.0772 -0.810808 -2.20169
head 10.0333 -0.79936 -0.575772
rclavicle 1.57537e-014 -3.89618e-014
rhumerus -42.3793 5.67573 -84.3655
rradius 66.2948
rwrist 3.27688
rhand -34.2465 -0.069294
rfingers 7.12502
rthumb -7.41747 -29.9193
lclavicle 1.57537e-014 -3.89618e-014
lhumerus -47.0198 -0.169771 87.5424
lradius 51.2897
lwrist 1.31285
lhand -17.2952 2.15655
lfingers 7.12502
lthumb 8.95051 31.9467
rfemur -13.2797 -1.23935 28.9896
rtibia 36.5532
rfoot -6.68511 -4.67154
rtoes 8.08858
lfemur -18.1034 -1.55706 -16.7342
ltibia 36.415
lfoot -3.6721 -6.94525
ltoes 1.53608
67
root 1.05898 17.9384 22.2161 -5.74462 6.33589 -5.70179
lowerback 10.0592 -0.285229 3.79556
upperback -0.29692 0.320546 4.00054
thorax -5.97402 0.108059 2.01348
lowerneck -22.0984 -1.46996 -2.08207
upperneck 20.1264 -0.802191 -2.14211
head 10.0687 -0.798006 -0.53614
rclavicle -1.85615e-014 7.95139e-015
rhumerus -42.1722 5.56859 -84.3881
rradius 66.1951
rwrist 3.33781
rhand -34.0486 -0.12649
rfingers 7.12502
rthumb -7.22652 -29.9831
lclavicle -1.85615e-014 7.95139e-015
lhumerus -46.9995 0.234971 87.0535
lradius 50.1348
lwrist 0.704861
lhand -16.4744 2.83928
lfingers 7.12502
lthumb 9.7425 32.5939
rfemur -12.8632 -1.03729 28.983
rtibia 36.2672
rfoot -7.10258 -4.58291
rtoes 8.15312
lfemur -17.6904 -1.31447 -16.8856
ltibia 36.1572
lfoot -3.84318 -6.39695
ltoes 1.9542
68
root 1.07359 17.9503 22.3367 -5.53421 6.17932 -5.55764
lowerback 9.85444 -0.351393 3.6359
upperback -0.408415 0.200173 3.91103
thorax -5.97471 0.051617 2.02637
lowerneck -21.7959 -1.32916 -1.81689
upperneck 19.9977 -0.681947 -2.24805
head 9.96583 -0.731905 -0.595383
rclavicle -6.24929e-015 3.97569e-014
rhumerus -42.133 5.41183 -84.6217
rradius 66.1326
rwrist 3.60099
rhand -33.8909 -0.221819
rfingers 7.12502
rthumb -7.07421 -30.0836
lclavicle -6.24929e-015 3.97569e-014
lhumerus -47.0933 0.831591 86.2951
lradius 48.9352
lwrist -0.311624
lhand -15.7671 3.34229
lfingers 7.12502
lthumb 10.4249 33.0638
rfemur -12.5 -0.996664 28.8368
rtibia 36.0704
rfoot -7.56135 -4.50564
rtoes 8.77547
lfemur -17.291 -1.07063 -17.1522
ltibia 35.9181
lfoot -4.01318 -5.97899
ltoes 2.26261
69
root 1.0893 17.961 22.4483 -5.22791 5.96794 -5.27921
lowerback 9.6569 -0.288294 3.41224
upperback -0.446653 0.241519 3.81641
thorax -5.90329 0.0774116 2.04453
lowerneck -21.8842 -1.33889 -1.83088
upperneck 19.941 -0.693786 -2.23059
head 9.96159 -0.736177 -0.588946
rclavicle -1.89094e-014 -3.18055e-014
rhumerus -41.8586 5.05611 -84.5968
rradius 66.0819
rwrist 3.65721
rhand -33.8351 -0.240513
rfingers 7.12502
rthumb -7.02042 -30.1041
lclavicle -1.89094e-014 -3.18055e-014
lhumerus -46.8653 1.22413 85.7898
lradius 47.6136
lwrist -0.909637
lhand -15.4071 3.29617
lfingers 7.12502
lthumb 10.7721 33
rfemur -12.3126 -0.933361 28.5449
rtibia 35.9372
rfoot -7.93579 -4.36997
rtoes 9.2052
lfemur -17.0598 -0.988574 -17.5411
ltibia 35.7643
lfoot -4.2239 -5.47046
ltoes 2.19298
70
root 1.10471 17.9727 22.5635 -4.95046 5.75081 -5.07767
lowerback 9.36263 -0.307979 3.22752
upperback -0.521273 0.173829 3.71665
thorax -5.81419 0.0481983 2.05098
lowerneck -21.7911 -1.24342 -1.70911
upperneck 19.9239 -0.606731 -2.22418
head 9.93807 -0.685103 -0.592871
rclavicle 2.75814e-015 -2.14687e-014
rhumerus -41.721 4.77308 -84.7557
rradius 65.9669
rwrist 3.84674
rhand -33.8095 -0.371483
rfingers 7.12502
rthumb -6.99567 -30.2359
lclavicle 2.75814e-015 -2.14687e-014
lhumerus -46.7897 1.8604 85.076
lradius 46.3357
lwrist -1.76614
lhand -15.0031 3.5344
lfingers 7.12502
lthumb 11.1617 33.2175
rfemur -12.1253 -0.911473 28.3271
rtibia 35.8453
rfoot -8.29776 -4.19122
rtoes 9.60034
lfemur -16.7973 -1.01791 -17.8299
ltibia 35.6179
lfoot -4.45199 -4.92236
ltoes 2.26352
71
root 1.12218 17.9844 22.6679 -4.58614 5.53638 -4.9623
lowerback 9.12684 -0.260076 3.24049
upperback -0.577065 0.222888 3.63465
thorax -5.7394 0.0707462 1.94877
lowerneck -22.0145 -1.24162 -1.68959
upperneck 19.9445 -0.600834 -2.23663
head 9.9857 -0.683741 -0.601666
rclavicle -3.05631e-015 -3.18055e-014
rhumerus -41.4324 4.29212 -84.7444
rradius 65.8436
rwrist 3.92217
rhand -33.8966 -0.492504
rfingers 7.12502
rthumb -7.07977 -30.3541
lclavicle -3.05631e-015 -3.18055e-014
lhumerus -46.4649 2.33675 84.4787
lradius 44.9951
lwrist -2.78247
lhand -14.648 3.73328
lfingers 7.12502
lthumb 11.5042 33.3976
rfemur -12.1134 -0.935061 28.1878
rtibia 35.794
rfoot -8.6843 -3.97945
rtoes 9.91397
lfemur -16.6933 -1.16699 -18.0149
ltibia 35.5092
lfoot -4.62437 -4.36225
ltoes 2.28626
72
root 1.13869 17.9974 22.7741 -4.26833 5.34958 -4.8548
lowerback 8.83165 -0.290637 3.1858
upperback -0.663322 0.158328 3.5549
thorax -5.6619 0.0393439 1.90282
lowerneck -21.9164 -1.13768 -1.54566
upperneck 19.886 -0.508093 -2.23998
head 9.94647 -0.629037 -0.611434
rclavicle -1.45361e-015 3.89618e-014
rhumerus -41.2892 3.8414 -84.8581
rradius 65.7198
rwrist 4.06821
rhand -34.0254 -0.631577
rfingers 7.12502
rthumb -7.20407 -30.489
lclavicle -1.45361e-015 3.89618e-014
lhumerus -46.3065 3.16323 83.6101
lradius 43.9211
lwrist -4.75785
lhand -13.1826 5.20135
lfingers 7.12502
lthumb 12.9172 34.7816
rfemur -12.0456 -0.996292 28.0487
rtibia 35.7223
rfoot -9.00504 -3.77652
rtoes 10.4818
lfemur -16.5716 -1.19909 -18.1732
ltibia 35.4601
lfoot -4.9016 -4.04588
ltoes 1.98465
73
root 1.15299 18.0072 22.8786 -3.97281 5.19103 -4.78437
lowerback 8.54111 -0.291599 3.13101
upperback -0.733539 0.136869 3.53841
thorax -5.57083 0.030379 1.91715
lowerneck -21.8012 -1.10164 -1.52163
upperneck 19.8104 -0.459163 -2.28794
head 9.89883 -0.609085 -0.623552
rclavicle -1.61637e-014 -3.18055e-015
rhumerus -41.1194 3.4243 -84.8488
rradius 65.544
rwrist 4.05095
rhand -34.1335 -0.875902
rfingers 7.12502
rthumb -7.30839 -30.7297
lclavicle -1.61637e-014 -3.18055e-015
lhumerus -46.1252 3.93384 82.9403
lradius 42.6914
lwrist -5.88278
lhand -13.0841 4.81976
lfingers 7.12502
lthumb 13.0121 34.3939
rfemur -11.9597 -1.11579 27.9475
rtibia 35.6522
rfoot -9.33467 -3.55625
rtoes 11.0941
lfemur -16.4756 -0.96134 -18.2551
ltibia 35.4387
lfoot -5.1253 -4.07126
ltoes 1.84234
74
root 1.16578 18.0179 22.9725 -3.68386 4.97274 -4.94202
lowerback 8.35021 -0.306528 3.28607
upperback -0.783775 0.125886 3.56842
thorax -5.51549 0.0209069 1.86173
lowerneck -21.9121 -1.03941 -1.4134
upperneck 19.7907 -0.397301 -2.3255
head 9.91156 -0.577109 -0.646168
rclavicle -6.33626e-015 -3.10104e-014
rhumerus -40.8617 2.93939 -84.8696
rradius 65.3541
rwrist 4.0815
rhand -34.2327 -0.901576
rfingers 7.12502
rthumb -7.40419 -30.752
lclavicle -6.33626e-015 -3.10104e-014
lhumerus -45.8455 4.83229 82.1713
lradius 41.4909
lwrist -6.97702
lhand -12.8781 4.62574
lfingers 7.12502
lthumb 13.2107 34.1872
rfemur -11.9055 -1.00936 28.1313
rtibia 35.5515
rfoot -9.54066 -3.53135
rtoes 11.3659
lfemur -16.4713 -0.727389 -18.0554
ltibia 35.4759
lfoot -5.3161 -4.12451
ltoes 1.69347
75
root 1.18121 18.0323 23.0739 -3.47799 4.90147 -4.88304
lowerback 8.10706 -0.327807 3.26914
upperback -0.806374 0.0814923 3.55066
thorax -5.40089 -0.000180694 1.85601
lowerneck -21.9527 -1.04831 -1.57071
upperneck 19.8182 -0.396972 -2.15704
head 9.92949 -0.569134 -0.561395
rclavicle -2.28851e-014 3.18055e-015
rhumerus -40.696 2.42924 -84.8273
rradius 65.1768
rwrist 3.9525
rhand -34.0286 -1.46934
rfingers 7.12502
rthumb -7.20718 -31.3266
lclavicle -2.28851e-014 3.18055e-015
lhumerus -45.6237 5.75077 81.4742
lradius 40.3995
lwrist -8.05325
lhand -12.7012 4.62152
lfingers 7.12502
lthumb 13.3812 34.1718
rfemur -11.7323 -1.24459 27.9986
rtibia 35.4747
rfoot -9.6885 -3.24381
rtoes 12.0389
lfemur -16.3121 -0.668682 -18.1194
ltibia 35.4918
lfoot -5.52174 -4.20127
ltoes 1.48546
76
root 1.18829 18.0439 23.1647 -3.29113 4.61918 -5.1456
lowerback 8.03439 -0.284632 3.49099
upperback -0.847113 0.162972 3.6295
thorax -5.40353 0.0345292 1.80368
lowerneck -22.0233 -1.04567 -1.5127
upperneck 19.8064 -0.394554 -2.22458
head 9.93777 -0.572042 -0.594836
rclavicle -1.86361e-015 -1.66979e-014
rhumerus -40.5514 1.81698 -84.8108
rradius 65.0487
rwrist 3.72857
rhand -34.4531 -1.35141
rfingers 7.12502
rthumb -7.61696 -31.1943
lclavicle -1.86361e-015 -1.66979e-014
lhumerus -45.3981 6.65373 80.7579
lradius 39.4258
lwrist -9.0934
lhand -12.4862 4.6615
lfingers 7.12502
lthumb 13.5885 34.198
rfemur -11.6223 -1.07568 28.3036
rtibia 35.4046
rfoot -9.7904 -3.17987
rtoes 12.3248
lfemur -16.2094 -0.631128 -17.7458
ltibia 35.5098
lfoot -5.6562 -4.18155
ltoes 1.0663
